<svg width="27" height="13" viewBox="0 0 27 13" fill="none" xmlns="http://www.w3.org/2000/svg">
<path fill-rule="evenodd" clip-rule="evenodd" d="M20.1795 0.910434C20.4729 0.618031 20.9478 0.618825 21.2402 0.912208L26.2816 5.97054C26.5734 6.26323 26.5734 6.73674 26.2816 7.02943L21.2402 12.0878C20.9478 12.3811 20.4729 12.3819 20.1795 12.0895C19.8862 11.7971 19.8854 11.3223 20.1778 11.0289L24.6915 6.49998L20.1778 1.97109C19.8854 1.67771 19.8862 1.20284 20.1795 0.910434Z" fill="white"/>
<path fill-rule="evenodd" clip-rule="evenodd" d="M-6.55671e-08 6.5C-2.93554e-08 6.08579 0.335786 5.75 0.75 5.75L25.6666 5.75C26.0808 5.75 26.4166 6.08579 26.4166 6.5C26.4166 6.91422 26.0808 7.25 25.6666 7.25L0.75 7.25C0.335786 7.25 -1.01779e-07 6.91421 -6.55671e-08 6.5Z" fill="white"/>
</svg>
