<svg width="31" height="33" viewBox="0 0 31 33" fill="none" xmlns="http://www.w3.org/2000/svg">
<path fill-rule="evenodd" clip-rule="evenodd" d="M30.411 7.30882C30.8659 7.95094 30.7472 8.83543 30.1392 9.33495C29.8045 9.6099 29.4764 9.87932 29.1548 10.1434C22.6027 15.524 18.7407 18.6954 16.6933 21.336C15.6623 22.6657 15.179 23.7593 15.0256 24.8435C14.8696 25.9463 15.0319 27.1978 15.5668 28.8865C15.7602 29.497 15.5446 30.163 15.0301 30.5444C14.5157 30.9258 13.8158 30.9385 13.2878 30.576C12.8131 30.2501 12.3776 29.9334 11.9797 29.6442L11.9626 29.6317C11.5541 29.3347 11.1914 29.0714 10.8373 28.8321C10.1351 28.3576 9.52849 28.0213 8.86722 27.8092C7.58499 27.3979 5.78068 27.3541 2.26056 28.427C1.64508 28.6146 0.978513 28.3888 0.603819 27.8657C0.229125 27.3426 0.229773 26.6388 0.605429 26.1164C1.97151 24.2168 2.77447 22.4076 3.08115 20.4849C3.38888 18.5557 3.21366 16.407 2.46741 13.8069C2.28263 13.163 2.54711 12.4747 3.11548 12.1203C3.68386 11.7658 4.41834 11.8312 4.91519 12.2804C6.4707 13.6868 7.6713 14.5436 8.81508 14.9894C9.90137 15.4127 11.0346 15.5023 12.5349 15.1603C14.0873 14.8065 16.0032 13.997 18.6019 12.6151C21.1895 11.2392 24.3588 9.34871 28.4094 6.89321C29.0823 6.48527 29.9561 6.66671 30.411 7.30882ZM6.14569 17.0024C6.278 18.3714 6.24713 19.6821 6.0437 20.9575C5.83465 22.2681 5.44808 23.5118 4.89678 24.7174C6.84899 24.4119 8.3959 24.5075 9.78351 24.9526C10.6001 25.2145 11.3129 25.5824 11.9746 25.9938C11.9567 25.4662 11.9815 24.9441 12.0552 24.4233C12.3018 22.6799 13.0732 21.109 14.3225 19.4977C14.9604 18.675 15.7454 17.8159 16.6842 16.8911C15.4236 17.4391 14.2747 17.8407 13.2017 18.0853C11.2016 18.5412 9.44761 18.4557 7.72566 17.7846C7.18748 17.5748 6.66348 17.3119 6.14569 17.0024Z" fill="#FFB23F"/>
<path fill-rule="evenodd" clip-rule="evenodd" d="M22.6731 21.356C23.4652 21.1135 24.304 21.5591 24.5465 22.3512C24.7403 22.9843 24.8616 23.7034 24.9598 24.2855C24.9942 24.4898 25.0258 24.6772 25.0567 24.8381C25.2129 25.6517 24.68 26.4378 23.8665 26.594C23.0529 26.7503 22.2667 26.2174 22.1105 25.4038C22.0511 25.0945 22.0056 24.8227 21.9638 24.5735C21.8801 24.0744 21.8116 23.6661 21.6779 23.2294C21.4354 22.4373 21.881 21.5985 22.6731 21.356Z" fill="#FFB23F"/>
<path fill-rule="evenodd" clip-rule="evenodd" d="M23.3278 26.9148C23.516 27.7215 23.0146 28.5281 22.2078 28.7164C22.084 28.7452 21.946 28.7793 21.7982 28.8158C21.3473 28.9271 20.805 29.061 20.2964 29.139C19.4775 29.2645 18.7119 28.7024 18.5864 27.8836C18.4608 27.0647 19.0229 26.2991 19.8418 26.1736C20.2069 26.1176 20.549 26.0332 20.9546 25.9331C21.1308 25.8896 21.3189 25.8432 21.5262 25.7948C22.3329 25.6066 23.1395 26.108 23.3278 26.9148Z" fill="#FFB23F"/>
<path fill-rule="evenodd" clip-rule="evenodd" d="M24.3146 27.1726C25.143 27.1749 25.8128 27.8482 25.8106 28.6767C25.8089 29.2797 25.923 30.0778 26.1007 30.6228C26.3575 31.4105 25.9271 32.2571 25.1395 32.5139C24.3518 32.7706 23.5052 32.3403 23.2484 31.5527C22.9599 30.6675 22.8082 29.5484 22.8106 28.6686C22.8128 27.8401 23.4862 27.1704 24.3146 27.1726Z" fill="#FFB23F"/>
<path fill-rule="evenodd" clip-rule="evenodd" d="M30.153 25.9932C30.2556 26.8153 29.6723 27.5648 28.8502 27.6673C28.6344 27.6943 28.4403 27.7372 28.1814 27.7946C28.0557 27.8224 27.9147 27.8537 27.7485 27.8881C27.3121 27.9784 26.7267 28.0819 26.1027 28.0314C25.277 27.9646 24.6618 27.241 24.7286 26.4153C24.7954 25.5895 25.519 24.9743 26.3447 25.0412C26.5203 25.0554 26.7558 25.03 27.1402 24.9504C27.2142 24.9351 27.3014 24.9158 27.3977 24.8944C27.7082 24.8257 28.1138 24.7359 28.4789 24.6904C29.301 24.5879 30.0505 25.1712 30.153 25.9932Z" fill="#FFB23F"/>
<path fill-rule="evenodd" clip-rule="evenodd" d="M8.43756 0.20844C9.2617 0.12427 9.99803 0.724134 10.0822 1.54827C10.162 2.32924 10.2957 3.11378 10.4584 3.92018C10.6223 4.73224 10.0968 5.52338 9.28478 5.68725C8.47272 5.85111 7.68158 5.32564 7.51771 4.51359C7.34422 3.65378 7.19094 2.76581 7.09772 1.85308C7.01355 1.02894 7.61342 0.29261 8.43756 0.20844Z" fill="#FFB23F"/>
<path fill-rule="evenodd" clip-rule="evenodd" d="M8.60314 5.93257C8.75169 6.74757 8.21143 7.52869 7.39643 7.67724C6.72208 7.80016 6.06959 7.88449 5.39653 7.94474C4.5714 8.0186 3.84263 7.40959 3.76876 6.58446C3.6949 5.75933 4.30392 5.03055 5.12905 4.95669C5.72342 4.90348 6.28478 4.83044 6.85847 4.72587C7.67347 4.57731 8.45458 5.11758 8.60314 5.93257Z" fill="#FFB23F"/>
<path fill-rule="evenodd" clip-rule="evenodd" d="M9.63327 6.22934C10.4616 6.21556 11.1442 6.87588 11.158 7.70419C11.1686 8.34059 11.2979 9.05838 11.459 9.83924C11.6263 10.6506 11.1043 11.444 10.2929 11.6113C9.48155 11.7787 8.68816 11.2566 8.52082 10.4452C8.36055 9.66815 8.17418 8.70197 8.15841 7.75407C8.14464 6.92576 8.80495 6.24311 9.63327 6.22934Z" fill="#FFB23F"/>
<path fill-rule="evenodd" clip-rule="evenodd" d="M15.2853 4.88199C15.3795 5.70505 14.7886 6.44861 13.9656 6.54278C13.5661 6.58848 13.2579 6.67623 12.8439 6.79411C12.6141 6.85954 12.3516 6.93426 12.0229 7.01622C11.2191 7.21662 10.405 6.72745 10.2046 5.92362C10.0042 5.1198 10.4933 4.30572 11.2972 4.10532C11.43 4.07219 11.5897 4.02718 11.7682 3.97684C12.2908 3.82951 12.9752 3.63653 13.6245 3.56223C14.4476 3.46806 15.1912 4.05894 15.2853 4.88199Z" fill="#FFB23F"/>
</svg>
