<svg width="22" height="21" viewBox="0 0 22 21" fill="none" xmlns="http://www.w3.org/2000/svg">
<path d="M11 1L14.09 7.26L21 8.27L16 13.14L17.18 20.02L11 16.77L4.82 20.02L6 13.14L1 8.27L7.91 7.26L11 1Z" fill="#FFB23F"/>
<path fill-rule="evenodd" clip-rule="evenodd" d="M11 0.25C11.2855 0.25 11.5462 0.412054 11.6726 0.668032L14.5882 6.57485L21.1085 7.52789C21.3909 7.56917 21.6254 7.76717 21.7135 8.03868C21.8015 8.31018 21.7278 8.60812 21.5233 8.80727L16.8059 13.402L17.9192 19.8932C17.9675 20.1746 17.8518 20.459 17.6208 20.6268C17.3898 20.7946 17.0836 20.8167 16.8309 20.6838L11 17.6174L5.16911 20.6838C4.91642 20.8167 4.61021 20.7946 4.37922 20.6268C4.14824 20.459 4.03255 20.1746 4.08082 19.8932L5.19413 13.402L0.476722 8.80727C0.272259 8.60812 0.198554 8.31018 0.286587 8.03868C0.374621 7.76717 0.609131 7.56917 0.891551 7.52789L7.41183 6.57485L10.3275 0.668032C10.4538 0.412054 10.7146 0.25 11 0.25ZM11 2.69444L8.58255 7.59197C8.4734 7.8131 8.26251 7.96645 8.01849 8.00211L2.61133 8.79245L6.52332 12.6027C6.70023 12.775 6.78097 13.0234 6.73923 13.2668L5.81616 18.6488L10.6509 16.1062C10.8695 15.9913 11.1306 15.9913 11.3491 16.1062L16.1839 18.6488L15.2608 13.2668C15.2191 13.0234 15.2998 12.775 15.4767 12.6027L19.3887 8.79245L13.9816 8.00211C13.7375 7.96645 13.5266 7.8131 13.4175 7.59197L11 2.69444Z" fill="#FFB23F"/>
</svg>
