<svg style="display: none" xmlns="http://www.w3.org/2000/svg">
  <symbol id="arrow-toLeft-long" viewBox="0 0 28 28" fill="transparent">
    <path d="M11.165 6.91821L4.08337 13.9999L11.165 21.0815" stroke-width="1.5" stroke-miterlimit="10" stroke-linecap="round" stroke-linejoin="round"/>
    <path d="M23.9165 14H4.2815" stroke-width="1.5" stroke-miterlimit="10" stroke-linecap="round" stroke-linejoin="round"/>
  </symbol>

  <symbol id="arrow-toLeft" viewBox="0 0 24 24" fill="transparent">
    <path d="M15.0901 19.92L8.57009 13.4C7.80009 12.63 7.80009 11.37 8.57009 10.6L15.0901 4.07996" stroke-width="1.5" stroke-miterlimit="10" stroke-linecap="round" stroke-linejoin="round"/>
  </symbol>

  <symbol id="arrow-toRight-longer" viewBox="0 0 27 13" fill="transparent">
    <path d="M20.959 1.44165L26.0004 6.49998L20.959 11.5583" stroke-width="1.5" stroke-miterlimit="10" stroke-linecap="round" stroke-linejoin="round"/>
    <path d="M1 6.5L25.9166 6.5" stroke-width="1.5" stroke-miterlimit="10" stroke-linecap="round" stroke-linejoin="round"/>
  </symbol>

  <symbol id="award" viewBox="0 0 30 30">
    <path d="M22.2623 6.8625V7.7875L17.8373 5.225C16.1623 4.2625 13.8248 4.2625 12.1623 5.225L7.7373 7.8V6.8625C7.7373 4.05 9.2748 2.5 12.0873 2.5H17.9123C20.7248 2.5 22.2623 4.05 22.2623 6.8625Z" fill="url(#paint0_linear_2_7434)"/>
    <path d="M22.3 9.96249L22.125 9.87499L20.425 8.89999L16.9 6.86249C15.825 6.23749 14.175 6.23749 13.1 6.86249L9.575 8.88749L7.875 9.88749L7.65 9.99999C5.4625 11.475 5.3125 11.75 5.3125 14.1125V19.7625C5.3125 22.125 5.4625 22.4 7.7 23.9125L13.1 27.025C13.6375 27.35 14.3125 27.4875 15 27.4875C15.675 27.4875 16.3625 27.3375 16.9 27.025L22.35 23.875C24.55 22.4 24.6875 22.1375 24.6875 19.7625V14.1125C24.6875 11.75 24.5375 11.475 22.3 9.96249ZM18.4875 16.875L17.725 17.8125C17.6 17.95 17.5125 18.2125 17.525 18.4L17.6 19.6C17.65 20.3375 17.125 20.7125 16.4375 20.45L15.325 20C15.15 19.9375 14.8625 19.9375 14.6875 20L13.575 20.4375C12.8875 20.7125 12.3625 20.325 12.4125 19.5875L12.4875 18.3875C12.5 18.2 12.4125 17.9375 12.2875 17.8L11.5125 16.875C11.0375 16.3125 11.25 15.6875 11.9625 15.5L13.125 15.2C13.3125 15.15 13.525 14.975 13.625 14.825L14.275 13.825C14.675 13.2 15.3125 13.2 15.725 13.825L16.375 14.825C16.475 14.9875 16.7 15.15 16.875 15.2L18.0375 15.5C18.75 15.6875 18.9625 16.3125 18.4875 16.875Z" fill="url(#paint1_linear_2_7434)"/>
    <defs>
    <linearGradient id="paint0_linear_2_7434" x1="34.5" y1="-45" x2="-11.5" y2="26.5" gradientUnits="userSpaceOnUse">
    <stop offset="0.390186" stop-color="#59A49E"/>
    <stop offset="0.767343" stop-color="#A6D8D2"/>
    </linearGradient>
    <linearGradient id="paint1_linear_2_7434" x1="7.5" y1="25" x2="25" y2="6" gradientUnits="userSpaceOnUse">
    <stop offset="0.212076" stop-color="#FFB23F"/>
    <stop offset="0.720856" stop-color="#FAD8A5"/>
    </linearGradient>
    </defs>
  </symbol>

  <symbol id="call-received" viewBox="0 0 30 30">
    <path d="M21.2498 10.9C21.0123 10.9 20.7748 10.8125 20.5873 10.625L18.0873 8.12502C17.7248 7.76252 17.7248 7.16252 18.0873 6.80002C18.4498 6.43752 19.0498 6.43752 19.4123 6.80002L21.2498 8.63752L25.5873 4.31252C25.9498 3.95002 26.5498 3.95002 26.9123 4.31252C27.2748 4.67502 27.2748 5.27502 26.9123 5.63752L21.9123 10.6375C21.7248 10.8 21.4873 10.9 21.2498 10.9Z" fill="url(#paint0_linear_2_7448)"/>
    <path d="M13.8125 18.6875L11.5 21C11.0125 21.4875 10.2375 21.4875 9.7375 21.0125C9.6 20.875 9.4625 20.75 9.325 20.6125C8.0375 19.3125 6.875 17.95 5.8375 16.525C4.8125 15.1 3.9875 13.675 3.3875 12.2625C2.8 10.8375 2.5 9.475 2.5 8.175C2.5 7.325 2.65 6.5125 2.95 5.7625C3.25 5 3.725 4.3 4.3875 3.675C5.1875 2.8875 6.0625 2.5 6.9875 2.5C7.3375 2.5 7.6875 2.575 8 2.725C8.325 2.875 8.6125 3.1 8.8375 3.425L11.7375 7.5125C11.9625 7.825 12.125 8.1125 12.2375 8.3875C12.35 8.65 12.4125 8.9125 12.4125 9.15C12.4125 9.45 12.325 9.75 12.15 10.0375C11.9875 10.325 11.75 10.625 11.45 10.925L10.5 11.9125C10.3625 12.05 10.3 12.2125 10.3 12.4125C10.3 12.5125 10.3125 12.6 10.3375 12.7C10.375 12.8 10.4125 12.875 10.4375 12.95C10.6625 13.3625 11.05 13.9 11.6 14.55C12.1625 15.2 12.7625 15.8625 13.4125 16.525C13.5375 16.65 13.675 16.775 13.8 16.9C14.3 17.3875 14.3125 18.1875 13.8125 18.6875Z" fill="url(#paint1_linear_2_7448)"/>
    <path d="M27.4625 22.9125C27.4625 23.2625 27.4 23.625 27.275 23.975C27.2375 24.075 27.2 24.175 27.15 24.275C26.9375 24.725 26.6625 25.15 26.3 25.55C25.6875 26.225 25.0125 26.7125 24.25 27.025C24.2375 27.025 24.225 27.0375 24.2125 27.0375C23.475 27.3375 22.675 27.5 21.8125 27.5C20.5375 27.5 19.175 27.2 17.7375 26.5875C16.3 25.975 14.8625 25.15 13.4375 24.1125C12.95 23.75 12.4625 23.3875 12 23L16.0875 18.9125C16.4375 19.175 16.75 19.375 17.0125 19.5125C17.075 19.5375 17.15 19.575 17.2375 19.6125C17.3375 19.65 17.4375 19.6625 17.55 19.6625C17.7625 19.6625 17.925 19.5875 18.0625 19.45L19.0125 18.5125C19.325 18.2 19.625 17.9625 19.9125 17.8125C20.2 17.6375 20.4875 17.55 20.8 17.55C21.0375 17.55 21.2875 17.6 21.5625 17.7125C21.8375 17.825 22.125 17.9875 22.4375 18.2L26.575 21.1375C26.9 21.3625 27.125 21.625 27.2625 21.9375C27.3875 22.25 27.4625 22.5625 27.4625 22.9125Z" fill="url(#paint2_linear_2_7448)"/>
    <defs>
    <linearGradient id="paint0_linear_2_7448" x1="29.3749" y1="2.50001" x2="17.4999" y2="10" gradientUnits="userSpaceOnUse">
    <stop stop-color="#69AFA9"/>
    <stop offset="0.8197" stop-color="#A1D5CF"/>
    </linearGradient>
    <linearGradient id="paint1_linear_2_7448" x1="-10.625" y1="2.5" x2="48.125" y2="43.125" gradientUnits="userSpaceOnUse">
    <stop offset="0.198716" stop-color="#FFB23F"/>
    <stop offset="1" stop-color="#FAD8A5"/>
    </linearGradient>
    <linearGradient id="paint2_linear_2_7448" x1="-1.25012" y1="17.5" x2="29.9999" y2="25.625" gradientUnits="userSpaceOnUse">
    <stop offset="0.365293" stop-color="#FFB23F"/>
    <stop offset="1" stop-color="#FAD8A5"/>
    </linearGradient>
    </defs>
  </symbol>

  <symbol id="cart" viewBox="0 0 30 30">
    <path d="M9.375 9.58739V8.37489C9.375 5.56239 11.6375 2.79989 14.45 2.53739C17.8 2.21239 20.625 4.84989 20.625 8.13739V9.86239" stroke-width="1.5" stroke-miterlimit="10" stroke-linecap="round" stroke-linejoin="round"/>
    <path d="M11.25 27.5H18.75C23.775 27.5 24.675 25.4875 24.9375 23.0375L25.875 15.5375C26.2125 12.4875 25.3375 10 20 10H10C4.66253 10 3.78753 12.4875 4.12503 15.5375L5.06253 23.0375C5.32503 25.4875 6.22503 27.5 11.25 27.5Z" stroke-width="1.5" stroke-miterlimit="10" stroke-linecap="round" stroke-linejoin="round"/>
    <path d="M19.3691 15H19.3803" stroke-width="1.5" stroke-linecap="round" stroke-linejoin="round"/>
    <path d="M10.6181 15H10.6294" stroke-width="1.5" stroke-linecap="round" stroke-linejoin="round"/>
  </symbol>

  <symbol id="curvedArrow" viewBox="0 0 327 327" fill="transparent">
    <path d="M175.772 245.176C183.833 244.316 194.661 242.923 202.368 240.73M202.368 240.73C203.256 240.477 199.476 234.67 199.28 234.417C194.966 228.863 190.059 224.044 184.952 219.239M202.368 240.73C158.606 235.673 127.02 204.269 126.302 172.87C126.23 169.758 126.156 166.371 126.383 162.992M126.383 162.992C126.746 157.61 127.873 152.249 130.997 148.052C133.881 144.179 139.268 140.348 144.28 140.983C153.642 142.17 156.341 154.392 149.984 160.897C144.398 166.613 132.668 167.79 126.383 162.992ZM126.383 162.992C126.251 162.89 126.121 162.787 125.993 162.68C95.1909 136.963 112.891 93.2305 141.789 77.64" stroke-width="5" stroke-miterlimit="1.5" stroke-linecap="round" stroke-linejoin="round"/>
  </symbol>

  <symbol id="decor-plusAndPlus" viewBox="0 0 51 51" fill="transparent">
    <path fill-rule="evenodd" clip-rule="evenodd" d="M39.187 17.1759C23.0046 26.9858 20.2788 28.152 13.9092 22.393C15.4886 27.8963 14.767 31.8985 11.8232 35.9922C19.1092 33.7715 20.4384 35.8003 24.1368 38.3394C21.8603 31.1522 25.0529 28.7875 39.187 17.1759Z" stroke-width="3" stroke-miterlimit="1.5" stroke-linecap="round" stroke-linejoin="round"/>
    <path d="M33.1123 31.7903C33.3434 32.5452 33.4351 33.3468 33.5837 34.1209" stroke-width="3" stroke-miterlimit="1.5" stroke-linecap="round" stroke-linejoin="round"/>
    <path d="M30.0693 36.6562C30.6689 36.5643 31.2745 36.3938 31.8673 36.2555" stroke-width="3" stroke-miterlimit="1.5" stroke-linecap="round" stroke-linejoin="round"/>
    <path d="M34.3106 37.6726C34.3086 38.4141 34.4414 39.3726 34.6746 40.0877" stroke-width="3" stroke-miterlimit="1.5" stroke-linecap="round" stroke-linejoin="round"/>
    <path d="M36.2236 35.5363C37.0232 35.601 37.8655 35.2785 38.6645 35.1788" stroke-width="3" stroke-miterlimit="1.5" stroke-linecap="round" stroke-linejoin="round"/>
    <path d="M18.5898 10.7007C18.6763 11.5475 18.8199 12.3838 18.988 13.2169" stroke-width="3" stroke-miterlimit="1.5" stroke-linecap="round" stroke-linejoin="round"/>
    <path d="M15.2627 15.4507C15.8964 15.394 16.5033 15.3153 17.1274 15.2015" stroke-width="3" stroke-miterlimit="1.5" stroke-linecap="round" stroke-linejoin="round"/>
    <path d="M19.6582 16.7291C19.6714 17.5213 19.8292 18.3633 19.9899 19.1422" stroke-width="3" stroke-miterlimit="1.5" stroke-linecap="round" stroke-linejoin="round"/>
    <path d="M21.6602 14.5608C22.3816 14.3809 23.049 14.1379 23.7952 14.0525" stroke-width="3" stroke-miterlimit="1.5" stroke-linecap="round" stroke-linejoin="round"/>
  </symbol>

  <symbol id="filter" viewBox="0 0 30 30" fill="transparent">
    <path d="M6.75 2.625H23.25C24.625 2.625 25.75 3.75 25.75 5.125V7.875C25.75 8.875 25.125 10.125 24.5 10.75L19.125 15.5C18.375 16.125 17.875 17.375 17.875 18.375V23.75C17.875 24.5 17.375 25.5 16.75 25.875L15 27C13.375 28 11.125 26.875 11.125 24.875V18.25C11.125 17.375 10.625 16.25 10.125 15.625L5.375 10.625C4.75 10 4.25 8.875 4.25 8.125V5.25C4.25 3.75 5.375 2.625 6.75 2.625Z" stroke-width="2" stroke-miterlimit="10" stroke-linecap="round" stroke-linejoin="round"/>
    <path d="M13.6625 2.625L7.5 12.5" stroke-width="2" stroke-miterlimit="10" stroke-linecap="round" stroke-linejoin="round"/>
  </symbol>

  <symbol id="logo-with-text" viewBox="0 0 131 42">
    <g clip-path="url(#clip0_2_6577)">
    <path d="M42 0H0V42H42V0Z" fill="transparent"/>
    <path d="M32.9034 20.6011L31.9654 24.1011H13.6534L8.66943 5.50562H12.2954L16.3379 20.6011H32.9034Z" fill="#AD7E5C"/>
    <path d="M31.4019 26.2009L30.4639 29.7009H9.60743L8.66943 26.2009H31.4019Z" fill="#518581"/>
    <path d="M29.9006 31.801L28.9626 35.301H14.5916L13.6536 31.801H29.9006Z" fill="#A6D8D1"/>
    </g>
    <path d="M54 12.216H57.264V27.216H64.92V30.096H54V12.216Z" fill="#151411"/>
    <path d="M70.7272 30.384C69.3512 30.384 68.2552 30.048 67.4392 29.376C66.6392 28.704 66.2393 27.792 66.2393 26.64C66.2393 25.536 66.6153 24.624 67.3673 23.904C68.1193 23.184 69.2472 22.704 70.7512 22.464L74.6392 21.84V21.408C74.6392 20.832 74.4153 20.36 73.9673 19.992C73.5353 19.624 72.9593 19.44 72.2393 19.44C71.5672 19.44 70.9672 19.624 70.4392 19.992C69.9272 20.344 69.5512 20.816 69.3112 21.408L66.7432 20.16C67.1272 19.136 67.8312 18.312 68.8552 17.688C69.8792 17.064 71.0472 16.752 72.3592 16.752C73.4152 16.752 74.3512 16.952 75.1672 17.352C75.9993 17.736 76.6392 18.288 77.0872 19.008C77.5513 19.712 77.7833 20.512 77.7833 21.408V30.096H74.8073V28.704C73.7833 29.824 72.4232 30.384 70.7272 30.384ZM69.5033 26.52C69.5033 26.968 69.6712 27.328 70.0072 27.6C70.3433 27.856 70.7752 27.984 71.3032 27.984C72.2792 27.984 73.0793 27.68 73.7033 27.072C74.3273 26.448 74.6392 25.68 74.6392 24.768V24.24L71.3512 24.792C70.7272 24.92 70.2633 25.128 69.9592 25.416C69.6552 25.688 69.5033 26.056 69.5033 26.52Z" fill="#151411"/>
    <path d="M80.6891 11.928H83.8331V30.096H80.6891V11.928Z" fill="#151411"/>
    <path d="M90.696 30.384C89.32 30.384 88.224 30.048 87.408 29.376C86.608 28.704 86.208 27.792 86.208 26.64C86.208 25.536 86.584 24.624 87.336 23.904C88.088 23.184 89.216 22.704 90.72 22.464L94.608 21.84V21.408C94.608 20.832 94.384 20.36 93.936 19.992C93.504 19.624 92.928 19.44 92.208 19.44C91.536 19.44 90.936 19.624 90.408 19.992C89.896 20.344 89.52 20.816 89.28 21.408L86.712 20.16C87.096 19.136 87.8 18.312 88.824 17.688C89.848 17.064 91.016 16.752 92.328 16.752C93.384 16.752 94.32 16.952 95.136 17.352C95.968 17.736 96.608 18.288 97.056 19.008C97.52 19.712 97.752 20.512 97.752 21.408V30.096H94.776V28.704C93.752 29.824 92.392 30.384 90.696 30.384ZM89.472 26.52C89.472 26.968 89.64 27.328 89.976 27.6C90.312 27.856 90.744 27.984 91.272 27.984C92.248 27.984 93.048 27.68 93.672 27.072C94.296 26.448 94.608 25.68 94.608 24.768V24.24L91.32 24.792C90.696 24.92 90.232 25.128 89.928 25.416C89.624 25.688 89.472 26.056 89.472 26.52Z" fill="#151411"/>
    <path d="M105.554 30.36C104.242 30.36 103.082 30.048 102.074 29.424C101.082 28.8 100.378 27.944 99.9619 26.856L102.29 25.656C102.642 26.36 103.106 26.912 103.682 27.312C104.274 27.696 104.922 27.888 105.626 27.888C106.234 27.888 106.706 27.768 107.042 27.528C107.394 27.272 107.57 26.928 107.57 26.496C107.57 26.128 107.426 25.824 107.138 25.584C106.85 25.328 106.474 25.16 106.01 25.08L103.874 24.72C102.77 24.432 101.914 23.944 101.306 23.256C100.714 22.552 100.418 21.728 100.418 20.784C100.418 20 100.626 19.304 101.042 18.696C101.458 18.072 102.034 17.592 102.77 17.256C103.522 16.92 104.37 16.752 105.314 16.752C106.514 16.752 107.57 17.04 108.482 17.616C109.394 18.176 110.058 18.96 110.474 19.968L108.146 21.168C107.89 20.608 107.498 20.16 106.97 19.824C106.442 19.488 105.858 19.32 105.218 19.32C104.69 19.32 104.266 19.44 103.946 19.68C103.642 19.92 103.49 20.232 103.49 20.616C103.49 21.32 104.018 21.792 105.074 22.032L107.162 22.416C108.266 22.72 109.122 23.216 109.73 23.904C110.338 24.592 110.642 25.408 110.642 26.352C110.642 27.136 110.426 27.832 109.994 28.44C109.578 29.048 108.986 29.52 108.218 29.856C107.45 30.192 106.562 30.36 105.554 30.36Z" fill="#151411"/>
    <path d="M112.986 17.04H116.13V30.096H112.986V17.04ZM112.746 13.44C112.746 12.864 112.906 12.416 113.226 12.096C113.546 11.776 113.986 11.616 114.546 11.616C115.122 11.616 115.57 11.776 115.89 12.096C116.21 12.416 116.37 12.864 116.37 13.44C116.37 14 116.21 14.44 115.89 14.76C115.586 15.08 115.138 15.24 114.546 15.24C113.986 15.24 113.546 15.08 113.226 14.76C112.906 14.44 112.746 14 112.746 13.44Z" fill="#151411"/>
    <path d="M122.993 30.384C121.617 30.384 120.521 30.048 119.705 29.376C118.905 28.704 118.505 27.792 118.505 26.64C118.505 25.536 118.881 24.624 119.633 23.904C120.385 23.184 121.513 22.704 123.017 22.464L126.905 21.84V21.408C126.905 20.832 126.681 20.36 126.233 19.992C125.801 19.624 125.225 19.44 124.505 19.44C123.833 19.44 123.233 19.624 122.705 19.992C122.193 20.344 121.817 20.816 121.577 21.408L119.009 20.16C119.393 19.136 120.097 18.312 121.121 17.688C122.145 17.064 123.313 16.752 124.625 16.752C125.681 16.752 126.617 16.952 127.433 17.352C128.265 17.736 128.905 18.288 129.353 19.008C129.817 19.712 130.049 20.512 130.049 21.408V30.096H127.073V28.704C126.049 29.824 124.689 30.384 122.993 30.384ZM121.769 26.52C121.769 26.968 121.937 27.328 122.273 27.6C122.609 27.856 123.041 27.984 123.569 27.984C124.545 27.984 125.345 27.68 125.969 27.072C126.593 26.448 126.905 25.68 126.905 24.768V24.24L123.617 24.792C122.993 24.92 122.529 25.128 122.225 25.416C121.921 25.688 121.769 26.056 121.769 26.52Z" fill="#151411"/>
    <defs>
    <clipPath id="clip0_2_6577">
    <rect width="42" height="42" fill="transparent"/>
    </clipPath>
    </defs>
  </symbol>

  <symbol id="logo" viewBox="0 0 42 42">
    <g clip-path="url(#clip0_2_6578)">
    <path d="M32.9034 20.6011L31.9654 24.1011H13.6534L8.66943 5.50562H12.2954L16.3379 20.6011H32.9034Z" fill="#AD7E5C"/>
    <path d="M31.4019 26.2009L30.4639 29.7009H9.60743L8.66943 26.2009H31.4019Z" fill="#518581"/>
    <path d="M29.9006 31.801L28.9626 35.301H14.5916L13.6536 31.801H29.9006Z" fill="#A6D8D1"/>
    </g>
    <defs>
    <clipPath id="clip0_2_6578">
    <rect width="42" height="42"/>
    </clipPath>
    </defs>
  </symbol>

  <symbol id="messages" viewBox="0 0 30 30">
    <path d="M16.4875 7.5H8.4875C8.1625 7.5 7.85 7.5125 7.55 7.55C4.1875 7.8375 2.5 9.825 2.5 13.4875V18.4875C2.5 23.4875 4.5 24.475 8.4875 24.475H8.9875C9.2625 24.475 9.625 24.6625 9.7875 24.875L11.2875 26.875C11.95 27.7625 13.025 27.7625 13.6875 26.875L15.1875 24.875C15.375 24.625 15.675 24.475 15.9875 24.475H16.4875C20.15 24.475 22.1375 22.8 22.425 19.425C22.4625 19.125 22.475 18.8125 22.475 18.4875V13.4875C22.475 9.5 20.475 7.5 16.4875 7.5ZM8.125 17.5C7.425 17.5 6.875 16.9375 6.875 16.25C6.875 15.5625 7.4375 15 8.125 15C8.8125 15 9.375 15.5625 9.375 16.25C9.375 16.9375 8.8125 17.5 8.125 17.5ZM12.4875 17.5C11.7875 17.5 11.2375 16.9375 11.2375 16.25C11.2375 15.5625 11.8 15 12.4875 15C13.175 15 13.7375 15.5625 13.7375 16.25C13.7375 16.9375 13.1875 17.5 12.4875 17.5ZM16.8625 17.5C16.1625 17.5 15.6125 16.9375 15.6125 16.25C15.6125 15.5625 16.175 15 16.8625 15C17.55 15 18.1125 15.5625 18.1125 16.25C18.1125 16.9375 17.55 17.5 16.8625 17.5Z" fill="url(#paint0_linear_2_7441)"/>
    <path d="M27.4748 8.4875V13.4875C27.4748 15.9875 26.6998 17.6875 25.1498 18.625C24.7748 18.85 24.3373 18.55 24.3373 18.1125L24.3498 13.4875C24.3498 8.4875 21.4873 5.625 16.4873 5.625L8.87482 5.6375C8.43732 5.6375 8.13732 5.2 8.36232 4.825C9.29982 3.275 10.9998 2.5 13.4873 2.5H21.4873C25.4748 2.5 27.4748 4.5 27.4748 8.4875Z" fill="url(#paint1_linear_2_7441)"/>
    <defs>
    <linearGradient id="paint0_linear_2_7441" x1="1.24963e-06" y1="30" x2="37.5" y2="-10.625" gradientUnits="userSpaceOnUse">
    <stop offset="0.203125" stop-color="#FFB23F"/>
    <stop offset="0.540676" stop-color="#FAD8A5"/>
    </linearGradient>
    <linearGradient id="paint1_linear_2_7441" x1="38.1251" y1="-6.25" x2="5.62512" y2="8.125" gradientUnits="userSpaceOnUse">
    <stop offset="0.351787" stop-color="#66ADA7"/>
    <stop offset="0.884165" stop-color="#9FD3CD"/>
    </linearGradient>
    </defs>
  </symbol>

  <symbol id="play" viewBox="0 0 18 19">
    <path d="M18 9.3923L-8.21101e-07 18.7846L0 -7.86805e-07L18 9.3923Z"/>
  </symbol>

  <symbol id="profile" viewBox="0 0 30 30">
    <path d="M15 15C18.4518 15 21.25 12.2018 21.25 8.75C21.25 5.29822 18.4518 2.5 15 2.5C11.5482 2.5 8.75 5.29822 8.75 8.75C8.75 12.2018 11.5482 15 15 15Z" stroke-width="1.5" stroke-linecap="round" stroke-linejoin="round"/>
    <path d="M25.7377 27.5C25.7377 22.6625 20.9252 18.75 15.0002 18.75C9.07519 18.75 4.2627 22.6625 4.2627 27.5" stroke-width="1.5" stroke-linecap="round" stroke-linejoin="round"/>
  </symbol>

  <symbol id="quote-up" viewBox="0 0 40 40">
    <path d="M13.483 19.3831H5.66634C5.79967 11.5998 7.33301 10.3165 12.1163 7.48312C12.6663 7.14979 12.8497 6.44979 12.5163 5.88312C12.1997 5.33312 11.483 5.14979 10.933 5.48312C5.29967 8.81646 3.33301 10.8498 3.33301 20.5331V29.5165C3.33301 32.3665 5.64967 34.6665 8.48301 34.6665H13.483C16.4163 34.6665 18.633 32.4498 18.633 29.5165V24.5165C18.633 21.5998 16.4163 19.3831 13.483 19.3831Z" fill="url(#paint0_linear_2_5541)"/>
    <path d="M31.5163 19.3831H23.6996C23.8329 11.5998 25.3663 10.3165 30.1496 7.48312C30.6996 7.14979 30.8829 6.44979 30.5496 5.88312C30.2163 5.33312 29.5163 5.14979 28.9496 5.48312C23.3163 8.81646 21.3496 10.8498 21.3496 20.5498V29.5331C21.3496 32.3831 23.6663 34.6831 26.4996 34.6831H31.4996C34.4329 34.6831 36.6496 32.4665 36.6496 29.5331V24.5331C36.6663 21.5998 34.4496 19.3831 31.5163 19.3831Z" fill="url(#paint1_linear_2_5541)"/>
    <defs>
      <linearGradient id="paint0_linear_2_5541" x1="20.9558" y1="218.376" x2="-18.5335" y2="216.745" gradientUnits="userSpaceOnUse">
        <stop offset="0.25249" stop-color="#40B4A6"/>
        <stop offset="0.637527" stop-color="#A6D8D2"/>
      </linearGradient>
      <linearGradient id="paint1_linear_2_5541" x1="38.9725" y1="218.497" x2="-0.517108" y2="216.867" gradientUnits="userSpaceOnUse">
        <stop offset="0.25249" stop-color="#40B4A6"/>
        <stop offset="0.637527" stop-color="#A6D8D2"/>
      </linearGradient>
    </defs>
  </symbol>

  <symbol id="search" viewBox="0 0 32 32">
    <path fill="transparent" d="M15.3334 28C22.329 28 28.0001 22.3289 28.0001 15.3333C28.0001 8.33769 22.329 2.66663 15.3334 2.66663C8.33781 2.66663 2.66675 8.33769 2.66675 15.3333C2.66675 22.3289 8.33781 28 15.3334 28Z" stroke-width="2" stroke-linecap="round" stroke-linejoin="round"/>
    <path fill="transparent" d="M29.3334 29.3333L26.6667 26.6666" stroke-width="2" stroke-linecap="round" stroke-linejoin="round"/>
  </symbol>

  <symbol id="sort" viewBox="0 0 24 24">
    <path d="M3 7H21" stroke="#151411" stroke-width="1.5" stroke-linecap="round"/>
    <path d="M6 12H18" stroke="#151411" stroke-width="1.5" stroke-linecap="round"/>
    <path d="M10 17H14" stroke="#151411" stroke-width="1.5" stroke-linecap="round"/>
  </symbol>

  <symbol id="star" viewBox="0 0 24 24">
    <path d="M12 2L15.09 8.26L22 9.27L17 14.14L18.18 21.02L12 17.77L5.82 21.02L7 14.14L2 9.27L8.91 8.26L12 2Z" stroke-width="1.5" stroke-linecap="round" stroke-linejoin="round"/>
  </symbol>
</svg>
